<svg xmlns="http://www.w3.org/2000/svg" xmlns:xlink="http://www.w3.org/1999/xlink" width="2000" zoomAndPan="magnify" viewBox="0 0 1500 449.999984" height="600" preserveAspectRatio="xMidYMid meet" version="1.0"><defs><g/><clipPath id="ea35f8200d"><path d="M 161 196 L 291.6875 196 L 291.6875 327 L 161 327 Z M 161 196 " clip-rule="nonzero"/></clipPath><clipPath id="a133bf9363"><path d="M 26 117.410156 L 230 117.410156 L 230 382 L 26 382 Z M 26 117.410156 " clip-rule="nonzero"/></clipPath><clipPath id="6cee351691"><path d="M 25.449219 110.753906 L 253.984375 110.753906 L 253.984375 151.402344 L 25.449219 151.402344 Z M 25.449219 110.753906 " clip-rule="nonzero"/></clipPath><clipPath id="1e9f075600"><path d="M 25.449219 143.683594 L 199.582031 143.683594 L 199.582031 382.652344 L 25.449219 382.652344 Z M 25.449219 143.683594 " clip-rule="nonzero"/></clipPath><clipPath id="dd229ec6ad"><path d="M 112.515625 190.597656 L 286.648438 190.597656 L 286.648438 382.652344 L 112.515625 382.652344 Z M 112.515625 190.597656 " clip-rule="nonzero"/></clipPath><clipPath id="bef7364133"><path d="M 161 181 L 291.6875 181 L 291.6875 312 L 161 312 Z M 161 181 " clip-rule="nonzero"/></clipPath><clipPath id="f3561df0ac"><path d="M 26 102.039062 L 230 102.039062 L 230 367 L 26 367 Z M 26 102.039062 " clip-rule="nonzero"/></clipPath><clipPath id="6f1cbcd5da"><path d="M 166.289062 177.671875 L 304.347656 177.671875 L 304.347656 246.703125 L 166.289062 246.703125 Z M 166.289062 177.671875 " clip-rule="nonzero"/></clipPath><clipPath id="37a21ceb8e"><path d="M 64.734375 234.660156 L 304.347656 234.660156 L 304.347656 334.675781 L 64.734375 334.675781 Z M 64.734375 234.660156 " clip-rule="nonzero"/></clipPath><clipPath id="a210a55696"><path d="M 255.769531 177.671875 L 295.660156 177.671875 L 295.660156 315.734375 L 255.769531 315.734375 Z M 255.769531 177.671875 " clip-rule="nonzero"/></clipPath><clipPath id="4bec1c9772"><path d="M 58.851562 148.527344 L 192.675781 148.527344 L 192.675781 274.390625 L 58.851562 274.390625 Z M 58.851562 148.527344 " clip-rule="nonzero"/></clipPath><clipPath id="dd8afd27c0"><path d="M 71.265625 154.347656 L 171.527344 154.347656 L 171.527344 182.398438 L 71.265625 182.398438 Z M 71.265625 154.347656 " clip-rule="nonzero"/></clipPath><clipPath id="72ec2c204c"><path d="M 157.5 182.398438 L 85.296875 182.398438 C 81.578125 182.398438 78.011719 180.921875 75.378906 178.289062 C 72.75 175.660156 71.273438 172.09375 71.273438 168.371094 C 71.273438 164.652344 72.75 161.085938 75.378906 158.453125 C 78.011719 155.824219 81.578125 154.347656 85.296875 154.347656 L 157.5 154.347656 C 161.21875 154.347656 164.789062 155.824219 167.417969 158.453125 C 170.046875 161.085938 171.527344 164.652344 171.527344 168.371094 C 171.527344 172.09375 170.046875 175.660156 167.417969 178.289062 C 164.789062 180.921875 161.21875 182.398438 157.5 182.398438 Z M 157.5 182.398438 " clip-rule="nonzero"/></clipPath><clipPath id="30fe172bd2"><path d="M 118.035156 310.050781 L 235.316406 310.050781 L 235.316406 380.363281 L 118.035156 380.363281 Z M 118.035156 310.050781 " clip-rule="nonzero"/></clipPath><clipPath id="61f1277d43"><path d="M 137.304688 272.355469 L 263 272.355469 L 263 362 L 137.304688 362 Z M 137.304688 272.355469 " clip-rule="nonzero"/></clipPath><clipPath id="80d71d5dc5"><path d="M 71.214844 217.863281 L 158.058594 217.863281 L 158.058594 246.660156 L 71.214844 246.660156 Z M 71.214844 217.863281 " clip-rule="nonzero"/></clipPath><clipPath id="ff38861528"><path d="M 143.660156 246.660156 L 85.710938 246.660156 C 77.757812 246.660156 71.3125 240.214844 71.3125 232.261719 C 71.3125 224.308594 77.757812 217.863281 85.710938 217.863281 L 143.660156 217.863281 C 151.613281 217.863281 158.058594 224.308594 158.058594 232.261719 C 158.058594 240.214844 151.613281 246.660156 143.660156 246.660156 Z M 143.660156 246.660156 " clip-rule="nonzero"/></clipPath><clipPath id="a60da17f44"><path d="M 187 271 L 265 271 L 265 341 L 187 341 Z M 187 271 " clip-rule="nonzero"/></clipPath><clipPath id="451bdf3d3e"><path d="M 268.316406 281.441406 L 195.855469 344.683594 L 183.871094 330.953125 L 256.332031 267.710938 Z M 268.316406 281.441406 " clip-rule="nonzero"/></clipPath><clipPath id="e3693482eb"><path d="M 261.453125 287.433594 L 202.730469 338.683594 C 200.910156 340.273438 198.53125 341.074219 196.121094 340.910156 C 193.710938 340.746094 191.464844 339.628906 189.875 337.808594 C 188.285156 335.988281 187.484375 333.609375 187.648438 331.199219 C 187.8125 328.789062 188.925781 326.542969 190.746094 324.953125 L 249.46875 273.703125 C 251.289062 272.113281 253.664062 271.3125 256.078125 271.476562 C 258.488281 271.640625 260.734375 272.753906 262.324219 274.574219 C 263.914062 276.398438 264.714844 278.773438 264.550781 281.183594 C 264.386719 283.597656 263.273438 285.84375 261.453125 287.433594 Z M 261.453125 287.433594 " clip-rule="nonzero"/></clipPath></defs><rect x="-150" width="1800" fill="#ffffff" y="-44.999998" height="539.99998" fill-opacity="1"/><rect x="-150" width="1800" fill="#ffffff" y="-44.999998" height="539.99998" fill-opacity="1"/><path fill="#ffffff" d="M 201.308594 266.355469 L 214.765625 280.453125 C 216.515625 282.277344 218.933594 283.3125 221.460938 283.3125 C 223.992188 283.3125 226.40625 282.277344 228.148438 280.453125 L 251.707031 255.78125 C 255.222656 252.082031 255.085938 246.222656 251.398438 242.695312 C 247.699219 239.179688 241.839844 239.316406 238.3125 243.003906 L 221.460938 260.667969 C 221.460938 260.667969 214.703125 253.574219 214.703125 253.574219 C 211.175781 249.886719 205.316406 249.75 201.613281 253.277344 C 197.925781 256.792969 197.792969 262.664062 201.308594 266.355469 Z M 201.308594 266.355469 " fill-opacity="1" fill-rule="evenodd"/><g clip-path="url(#ea35f8200d)"><path fill="#ffffff" d="M 226.507812 196.972656 C 190.761719 196.972656 161.75 225.980469 161.75 261.726562 C 161.75 297.476562 190.761719 326.484375 226.507812 326.484375 C 262.253906 326.484375 291.265625 297.476562 291.265625 261.726562 C 291.265625 225.980469 262.253906 196.972656 226.507812 196.972656 Z M 226.507812 215.472656 C 252.039062 215.472656 272.761719 236.195312 272.761719 261.726562 C 272.761719 287.261719 252.039062 307.984375 226.507812 307.984375 C 200.972656 307.984375 180.25 287.261719 180.25 261.726562 C 180.25 236.195312 200.972656 215.472656 226.507812 215.472656 Z M 226.507812 215.472656 " fill-opacity="1" fill-rule="evenodd"/></g><g clip-path="url(#a133bf9363)"><path fill="#ffffff" d="M 229.589844 175.386719 C 229.589844 175.386719 229.589844 163.050781 229.589844 150.714844 C 229.589844 131.980469 214.40625 116.792969 195.667969 116.792969 L 65.007812 116.792969 C 54.671875 116.792969 44.753906 120.9375 37.4375 128.316406 C 30.160156 135.667969 26.066406 145.621094 26.066406 156.019531 L 26.066406 350.269531 C 26.066406 367.808594 40.203125 381.992188 57.59375 381.992188 C 100.554688 381.992188 142.382812 381.992188 190.648438 381.992188 C 200.984375 381.992188 210.902344 377.847656 218.21875 370.472656 C 225.496094 363.121094 229.589844 353.167969 229.589844 342.769531 C 229.589844 337.660156 225.445312 333.515625 220.339844 333.515625 C 215.234375 333.515625 211.089844 337.660156 211.089844 342.769531 C 211.089844 348.269531 208.929688 353.5625 205.070312 357.445312 C 201.246094 361.320312 196.050781 363.492188 190.648438 363.492188 C 190.648438 363.492188 57.59375 363.492188 57.59375 363.492188 C 50.378906 363.492188 44.566406 357.546875 44.566406 350.269531 C 44.566406 350.269531 44.566406 156.019531 44.566406 156.019531 C 44.566406 150.503906 46.726562 145.226562 50.585938 141.339844 C 54.410156 137.46875 59.605469 135.296875 65.007812 135.296875 L 195.667969 135.296875 C 204.179688 135.296875 211.089844 142.203125 211.089844 150.714844 C 211.089844 163.050781 211.089844 175.386719 211.089844 175.386719 C 211.089844 180.492188 215.234375 184.636719 220.339844 184.636719 C 225.445312 184.636719 229.589844 180.492188 229.589844 175.386719 Z M 229.589844 175.386719 " fill-opacity="1" fill-rule="evenodd"/></g><path fill="#ffffff" d="M 96.992188 190.804688 L 158.664062 190.804688 C 163.773438 190.804688 167.917969 186.660156 167.917969 181.550781 C 167.917969 176.445312 163.773438 172.300781 158.664062 172.300781 L 96.992188 172.300781 C 91.882812 172.300781 87.738281 176.445312 87.738281 181.550781 C 87.738281 186.660156 91.882812 190.804688 96.992188 190.804688 Z M 96.992188 190.804688 " fill-opacity="1" fill-rule="evenodd"/><path fill="#ffffff" d="M 78.488281 240.144531 L 140.164062 240.144531 C 145.269531 240.144531 149.414062 236 149.414062 230.890625 C 149.414062 225.785156 145.269531 221.640625 140.164062 221.640625 L 78.488281 221.640625 C 73.382812 221.640625 69.238281 225.785156 69.238281 230.890625 C 69.238281 236 73.382812 240.144531 78.488281 240.144531 Z M 78.488281 240.144531 " fill-opacity="1" fill-rule="evenodd"/><path fill="#ffffff" d="M 78.488281 283.3125 L 140.164062 283.3125 C 145.269531 283.3125 149.414062 279.171875 149.414062 274.0625 C 149.414062 268.957031 145.269531 264.8125 140.164062 264.8125 L 78.488281 264.8125 C 73.382812 264.8125 69.238281 268.957031 69.238281 274.0625 C 69.238281 279.171875 73.382812 283.3125 78.488281 283.3125 Z M 78.488281 283.3125 " fill-opacity="1" fill-rule="evenodd"/><path fill="#ffffff" d="M 78.488281 326.484375 L 158.664062 326.484375 C 163.773438 326.484375 167.917969 322.339844 167.917969 317.234375 C 167.917969 312.128906 163.773438 307.984375 158.664062 307.984375 L 78.488281 307.984375 C 73.382812 307.984375 69.238281 312.128906 69.238281 317.234375 C 69.238281 322.339844 73.382812 326.484375 78.488281 326.484375 Z M 78.488281 326.484375 " fill-opacity="1" fill-rule="evenodd"/><g clip-path="url(#6cee351691)"><path fill="#ffffff" d="M 25.449219 110.753906 L 253.925781 110.753906 L 253.925781 151.402344 L 25.449219 151.402344 Z M 25.449219 110.753906 " fill-opacity="1" fill-rule="nonzero"/></g><g clip-path="url(#1e9f075600)"><path fill="#ffffff" d="M 25.449219 143.683594 L 199.582031 143.683594 L 199.582031 382.433594 L 25.449219 382.433594 Z M 25.449219 143.683594 " fill-opacity="1" fill-rule="nonzero"/></g><g clip-path="url(#dd229ec6ad)"><path fill="#ffffff" d="M 112.515625 190.597656 L 286.648438 190.597656 L 286.648438 382.414062 L 112.515625 382.414062 Z M 112.515625 190.597656 " fill-opacity="1" fill-rule="nonzero"/></g><path fill="#2b3035" d="M 201.308594 250.984375 L 214.765625 265.082031 C 216.515625 266.90625 218.933594 267.945312 221.460938 267.945312 C 223.992188 267.945312 226.40625 266.90625 228.148438 265.082031 L 251.707031 240.414062 C 255.222656 236.710938 255.085938 230.851562 251.398438 227.324219 C 247.699219 223.808594 241.839844 223.945312 238.3125 227.632812 L 221.460938 245.296875 C 221.460938 245.296875 214.703125 238.203125 214.703125 238.203125 C 211.175781 234.515625 205.316406 234.378906 201.613281 237.90625 C 197.925781 241.421875 197.792969 247.296875 201.308594 250.984375 Z M 201.308594 250.984375 " fill-opacity="1" fill-rule="evenodd"/><g clip-path="url(#bef7364133)"><path fill="#2b3035" d="M 226.507812 181.601562 C 190.761719 181.601562 161.75 210.609375 161.75 246.359375 C 161.75 282.105469 190.761719 311.117188 226.507812 311.117188 C 262.253906 311.117188 291.265625 282.105469 291.265625 246.359375 C 291.265625 210.609375 262.253906 181.601562 226.507812 181.601562 Z M 226.507812 200.101562 C 252.039062 200.101562 272.761719 220.824219 272.761719 246.359375 C 272.761719 271.890625 252.039062 292.613281 226.507812 292.613281 C 200.972656 292.613281 180.25 271.890625 180.25 246.359375 C 180.25 220.824219 200.972656 200.101562 226.507812 200.101562 Z M 226.507812 200.101562 " fill-opacity="1" fill-rule="evenodd"/></g><g clip-path="url(#f3561df0ac)"><path fill="#2b3035" d="M 229.589844 160.015625 C 229.589844 160.015625 229.589844 147.679688 229.589844 135.34375 C 229.589844 116.609375 214.40625 101.421875 195.667969 101.421875 L 65.007812 101.421875 C 54.671875 101.421875 44.753906 105.566406 37.4375 112.945312 C 30.160156 120.296875 26.066406 130.25 26.066406 140.648438 L 26.066406 334.898438 C 26.066406 352.4375 40.203125 366.621094 57.59375 366.621094 C 100.554688 366.621094 142.382812 366.621094 190.648438 366.621094 C 200.984375 366.621094 210.902344 362.476562 218.21875 355.101562 C 225.496094 347.75 229.589844 337.796875 229.589844 327.398438 C 229.589844 322.289062 225.445312 318.144531 220.339844 318.144531 C 215.234375 318.144531 211.089844 322.289062 211.089844 327.398438 C 211.089844 332.898438 208.929688 338.191406 205.070312 342.074219 C 201.246094 345.949219 196.050781 348.121094 190.648438 348.121094 C 190.648438 348.121094 57.59375 348.121094 57.59375 348.121094 C 50.378906 348.121094 44.566406 342.175781 44.566406 334.898438 C 44.566406 334.898438 44.566406 140.648438 44.566406 140.648438 C 44.566406 135.132812 46.726562 129.855469 50.585938 125.96875 C 54.410156 122.097656 59.605469 119.925781 65.007812 119.925781 L 195.667969 119.925781 C 204.179688 119.925781 211.089844 126.832031 211.089844 135.34375 C 211.089844 147.679688 211.089844 160.015625 211.089844 160.015625 C 211.089844 165.121094 215.234375 169.265625 220.339844 169.265625 C 225.445312 169.265625 229.589844 165.121094 229.589844 160.015625 Z M 229.589844 160.015625 " fill-opacity="1" fill-rule="evenodd"/></g><path fill="#2b3035" d="M 96.992188 175.433594 L 158.664062 175.433594 C 163.773438 175.433594 167.917969 171.289062 167.917969 166.179688 C 167.917969 161.074219 163.773438 156.929688 158.664062 156.929688 L 96.992188 156.929688 C 91.882812 156.929688 87.738281 161.074219 87.738281 166.179688 C 87.738281 171.289062 91.882812 175.433594 96.992188 175.433594 Z M 96.992188 175.433594 " fill-opacity="1" fill-rule="evenodd"/><path fill="#2b3035" d="M 78.488281 224.773438 L 140.164062 224.773438 C 145.269531 224.773438 149.414062 220.628906 149.414062 215.519531 C 149.414062 210.414062 145.269531 206.269531 140.164062 206.269531 L 78.488281 206.269531 C 73.382812 206.269531 69.238281 210.414062 69.238281 215.519531 C 69.238281 220.628906 73.382812 224.773438 78.488281 224.773438 Z M 78.488281 224.773438 " fill-opacity="1" fill-rule="evenodd"/><path fill="#2b3035" d="M 78.488281 267.945312 L 140.164062 267.945312 C 145.269531 267.945312 149.414062 263.800781 149.414062 258.691406 C 149.414062 253.585938 145.269531 249.441406 140.164062 249.441406 L 78.488281 249.441406 C 73.382812 249.441406 69.238281 253.585938 69.238281 258.691406 C 69.238281 263.800781 73.382812 267.945312 78.488281 267.945312 Z M 78.488281 267.945312 " fill-opacity="1" fill-rule="evenodd"/><path fill="#2b3035" d="M 78.488281 311.117188 L 158.664062 311.117188 C 163.773438 311.117188 167.917969 306.972656 167.917969 301.863281 C 167.917969 296.757812 163.773438 292.613281 158.664062 292.613281 L 78.488281 292.613281 C 73.382812 292.613281 69.238281 296.757812 69.238281 301.863281 C 69.238281 306.972656 73.382812 311.117188 78.488281 311.117188 Z M 78.488281 311.117188 " fill-opacity="1" fill-rule="evenodd"/><g clip-path="url(#6f1cbcd5da)"><path fill="#ffffff" d="M 166.289062 177.671875 L 304.347656 177.671875 L 304.347656 246.703125 L 166.289062 246.703125 Z M 166.289062 177.671875 " fill-opacity="1" fill-rule="nonzero"/></g><g clip-path="url(#37a21ceb8e)"><path fill="#ffffff" d="M 64.734375 234.660156 L 304.230469 234.660156 L 304.230469 334.675781 L 64.734375 334.675781 Z M 64.734375 234.660156 " fill-opacity="1" fill-rule="nonzero"/></g><g clip-path="url(#a210a55696)"><path fill="#ffffff" d="M 295.660156 177.671875 L 295.660156 315.722656 L 255.769531 315.722656 L 255.769531 177.671875 Z M 295.660156 177.671875 " fill-opacity="1" fill-rule="nonzero"/></g><g clip-path="url(#4bec1c9772)"><path fill="#ffffff" d="M 192.675781 148.527344 L 192.675781 274.390625 L 58.949219 274.390625 L 58.949219 148.527344 Z M 192.675781 148.527344 " fill-opacity="1" fill-rule="nonzero"/></g><g clip-path="url(#dd8afd27c0)"><g clip-path="url(#72ec2c204c)"><path fill="#2b3035" d="M 171.527344 182.398438 L 71.265625 182.398438 L 71.265625 154.347656 L 171.527344 154.347656 Z M 171.527344 182.398438 " fill-opacity="1" fill-rule="nonzero"/></g></g><g clip-path="url(#30fe172bd2)"><path fill="#ffffff" d="M 118.035156 310.050781 L 235.316406 310.050781 L 235.316406 380.363281 L 118.035156 380.363281 Z M 118.035156 310.050781 " fill-opacity="1" fill-rule="nonzero"/></g><g clip-path="url(#61f1277d43)"><path fill="#2b3035" d="M 261.578125 281.027344 C 263.457031 279.148438 263.457031 276.109375 261.578125 274.234375 C 259.703125 272.359375 256.664062 272.359375 254.789062 274.234375 L 181.480469 332.953125 L 145.96875 312.027344 C 144.09375 310.152344 141.054688 310.152344 139.175781 312.027344 C 137.300781 313.902344 137.300781 316.945312 139.175781 318.820312 L 181.480469 361.113281 Z M 261.578125 281.027344 " fill-opacity="1" fill-rule="nonzero"/></g><g clip-path="url(#80d71d5dc5)"><g clip-path="url(#ff38861528)"><path fill="#2b3035" d="M 158.058594 246.660156 L 71.328125 246.660156 L 71.328125 217.863281 L 158.058594 217.863281 Z M 158.058594 246.660156 " fill-opacity="1" fill-rule="nonzero"/></g></g><g clip-path="url(#a60da17f44)"><g clip-path="url(#451bdf3d3e)"><g clip-path="url(#e3693482eb)"><path fill="#2b3035" d="M 268.316406 281.441406 L 195.855469 344.683594 L 183.871094 330.953125 L 256.332031 267.710938 Z M 268.316406 281.441406 " fill-opacity="1" fill-rule="nonzero"/></g></g></g><g fill="#2b3035" fill-opacity="1"><g transform="translate(295.076371, 361.447216)"><g><path d="M 182.3125 -70.703125 C 182.3125 -47.710938 174.039062 -29.597656 157.5 -16.359375 C 140.957031 -3.128906 117.941406 3.484375 88.453125 3.484375 C 61.296875 3.484375 37.269531 -1.625 16.375 -11.84375 L 16.375 -61.984375 C 33.550781 -54.328125 48.085938 -48.929688 59.984375 -45.796875 C 71.890625 -42.660156 82.773438 -41.09375 92.640625 -41.09375 C 104.484375 -41.09375 113.566406 -43.351562 119.890625 -47.875 C 126.210938 -52.40625 129.375 -59.144531 129.375 -68.09375 C 129.375 -73.082031 127.976562 -77.519531 125.1875 -81.40625 C 122.40625 -85.289062 118.316406 -89.03125 112.921875 -92.625 C 107.523438 -96.226562 96.523438 -101.976562 79.921875 -109.875 C 64.367188 -117.1875 52.703125 -124.207031 44.921875 -130.9375 C 37.148438 -137.675781 30.941406 -145.515625 26.296875 -154.453125 C 21.648438 -163.390625 19.328125 -173.835938 19.328125 -185.796875 C 19.328125 -208.316406 26.957031 -226.019531 42.21875 -238.90625 C 57.488281 -251.789062 78.59375 -258.234375 105.53125 -258.234375 C 118.757812 -258.234375 131.378906 -256.664062 143.390625 -253.53125 C 155.410156 -250.40625 167.976562 -245.992188 181.09375 -240.296875 L 163.6875 -198.34375 C 150.101562 -203.914062 138.867188 -207.800781 129.984375 -210 C 121.109375 -212.207031 112.375 -213.3125 103.78125 -213.3125 C 93.5625 -213.3125 85.722656 -210.929688 80.265625 -206.171875 C 74.816406 -201.410156 72.09375 -195.203125 72.09375 -187.546875 C 72.09375 -182.785156 73.191406 -178.632812 75.390625 -175.09375 C 77.597656 -171.550781 81.109375 -168.125 85.921875 -164.8125 C 90.742188 -161.507812 102.15625 -155.5625 120.15625 -146.96875 C 143.945312 -135.59375 160.253906 -124.1875 169.078125 -112.75 C 177.898438 -101.3125 182.3125 -87.296875 182.3125 -70.703125 Z M 182.3125 -70.703125 "/></g></g></g><g fill="#2b3035" fill-opacity="1"><g transform="translate(472.946698, 361.447216)"><g><path d="M 70.171875 -97.6875 C 70.171875 -78.414062 73.332031 -63.847656 79.65625 -53.984375 C 85.988281 -44.117188 96.296875 -39.1875 110.578125 -39.1875 C 124.734375 -39.1875 134.914062 -44.085938 141.125 -53.890625 C 147.34375 -63.703125 150.453125 -78.300781 150.453125 -97.6875 C 150.453125 -116.957031 147.316406 -131.410156 141.046875 -141.046875 C 134.773438 -150.679688 124.5 -155.5 110.21875 -155.5 C 96.0625 -155.5 85.847656 -150.707031 79.578125 -141.125 C 73.304688 -131.550781 70.171875 -117.070312 70.171875 -97.6875 Z M 204.78125 -97.6875 C 204.78125 -66 196.421875 -41.210938 179.703125 -23.328125 C 162.984375 -5.453125 139.707031 3.484375 109.875 3.484375 C 91.1875 3.484375 74.703125 -0.601562 60.421875 -8.78125 C 46.140625 -16.96875 35.164062 -28.722656 27.5 -44.046875 C 19.84375 -59.378906 16.015625 -77.257812 16.015625 -97.6875 C 16.015625 -129.5 24.316406 -154.226562 40.921875 -171.875 C 57.523438 -189.519531 80.859375 -198.34375 110.921875 -198.34375 C 129.609375 -198.34375 146.09375 -194.273438 160.375 -186.140625 C 174.65625 -178.015625 185.625 -166.347656 193.28125 -151.140625 C 200.945312 -135.941406 204.78125 -118.125 204.78125 -97.6875 Z M 204.78125 -97.6875 "/></g></g></g><g fill="#2b3035" fill-opacity="1"><g transform="translate(675.194936, 361.447216)"><g><path d="M 89.5 3.484375 C 66.632812 3.484375 48.671875 -5.394531 35.609375 -23.15625 C 22.546875 -40.914062 16.015625 -65.53125 16.015625 -97 C 16.015625 -128.914062 22.660156 -153.785156 35.953125 -171.609375 C 49.242188 -189.429688 67.554688 -198.34375 90.890625 -198.34375 C 115.390625 -198.34375 134.082031 -188.820312 146.96875 -169.78125 L 148.703125 -169.78125 C 146.035156 -184.289062 144.703125 -197.234375 144.703125 -208.609375 L 144.703125 -270.953125 L 197.984375 -270.953125 L 197.984375 0 L 157.25 0 L 146.96875 -25.25 L 144.703125 -25.25 C 132.628906 -6.09375 114.226562 3.484375 89.5 3.484375 Z M 108.140625 -38.828125 C 121.722656 -38.828125 131.675781 -42.773438 138 -50.671875 C 144.320312 -58.566406 147.773438 -71.972656 148.359375 -90.890625 L 148.359375 -96.640625 C 148.359375 -117.535156 145.132812 -132.507812 138.6875 -141.5625 C 132.25 -150.625 121.773438 -155.15625 107.265625 -155.15625 C 95.421875 -155.15625 86.21875 -150.132812 79.65625 -140.09375 C 73.101562 -130.050781 69.828125 -115.453125 69.828125 -96.296875 C 69.828125 -77.140625 73.132812 -62.769531 79.75 -53.1875 C 86.363281 -43.613281 95.828125 -38.828125 108.140625 -38.828125 Z M 108.140625 -38.828125 "/></g></g></g><g fill="#2b3035" fill-opacity="1"><g transform="translate(882.318766, 361.447216)"><g><path d="M 70.171875 -97.6875 C 70.171875 -78.414062 73.332031 -63.847656 79.65625 -53.984375 C 85.988281 -44.117188 96.296875 -39.1875 110.578125 -39.1875 C 124.734375 -39.1875 134.914062 -44.085938 141.125 -53.890625 C 147.34375 -63.703125 150.453125 -78.300781 150.453125 -97.6875 C 150.453125 -116.957031 147.316406 -131.410156 141.046875 -141.046875 C 134.773438 -150.679688 124.5 -155.5 110.21875 -155.5 C 96.0625 -155.5 85.847656 -150.707031 79.578125 -141.125 C 73.304688 -131.550781 70.171875 -117.070312 70.171875 -97.6875 Z M 204.78125 -97.6875 C 204.78125 -66 196.421875 -41.210938 179.703125 -23.328125 C 162.984375 -5.453125 139.707031 3.484375 109.875 3.484375 C 91.1875 3.484375 74.703125 -0.601562 60.421875 -8.78125 C 46.140625 -16.96875 35.164062 -28.722656 27.5 -44.046875 C 19.84375 -59.378906 16.015625 -77.257812 16.015625 -97.6875 C 16.015625 -129.5 24.316406 -154.226562 40.921875 -171.875 C 57.523438 -189.519531 80.859375 -198.34375 110.921875 -198.34375 C 129.609375 -198.34375 146.09375 -194.273438 160.375 -186.140625 C 174.65625 -178.015625 185.625 -166.347656 193.28125 -151.140625 C 200.945312 -135.941406 204.78125 -118.125 204.78125 -97.6875 Z M 204.78125 -97.6875 "/></g></g></g><g fill="#2b3035" fill-opacity="1"><g transform="translate(1084.566991, 361.447216)"><g><path d="M 106.921875 3.484375 C 46.316406 3.484375 16.015625 -29.773438 16.015625 -96.296875 C 16.015625 -129.378906 24.253906 -154.65625 40.734375 -172.125 C 57.222656 -189.601562 80.851562 -198.34375 111.625 -198.34375 C 134.144531 -198.34375 154.34375 -193.929688 172.21875 -185.109375 L 156.546875 -144.015625 C 148.191406 -147.378906 140.414062 -150.132812 133.21875 -152.28125 C 126.019531 -154.425781 118.820312 -155.5 111.625 -155.5 C 83.988281 -155.5 70.171875 -135.878906 70.171875 -96.640625 C 70.171875 -58.566406 83.988281 -39.53125 111.625 -39.53125 C 121.832031 -39.53125 131.289062 -40.894531 140 -43.625 C 148.707031 -46.351562 157.414062 -50.617188 166.125 -56.421875 L 166.125 -10.96875 C 157.53125 -5.507812 148.847656 -1.738281 140.078125 0.34375 C 131.316406 2.4375 120.265625 3.484375 106.921875 3.484375 Z M 106.921875 3.484375 "/></g></g></g><g fill="#2b3035" fill-opacity="1"><g transform="translate(1249.377766, 361.447216)"><g><path d="M 165.78125 0 L 158.640625 -24.90625 L 155.84375 -24.90625 C 150.15625 -15.84375 142.085938 -8.84375 131.640625 -3.90625 C 121.191406 1.019531 109.296875 3.484375 95.953125 3.484375 C 73.078125 3.484375 55.832031 -2.640625 44.21875 -14.890625 C 32.613281 -27.140625 26.8125 -44.753906 26.8125 -67.734375 L 26.8125 -194.6875 L 79.921875 -194.6875 L 79.921875 -80.96875 C 79.921875 -66.925781 82.414062 -56.390625 87.40625 -49.359375 C 92.40625 -42.335938 100.359375 -38.828125 111.265625 -38.828125 C 126.128906 -38.828125 136.867188 -43.789062 143.484375 -53.71875 C 150.097656 -63.644531 153.40625 -80.101562 153.40625 -103.09375 L 153.40625 -194.6875 L 206.515625 -194.6875 L 206.515625 0 Z M 165.78125 0 "/></g></g></g></svg>