<svg xmlns="http://www.w3.org/2000/svg" xmlns:xlink="http://www.w3.org/1999/xlink" width="500" zoomAndPan="magnify" viewBox="0 0 375 374.999991" height="500" preserveAspectRatio="xMidYMid meet" version="1.0"><defs><g/><clipPath id="b71c22423a"><path d="M 26.003906 176.519531 L 59.753906 176.519531 L 59.753906 181.019531 L 26.003906 181.019531 Z M 26.003906 176.519531 " clip-rule="nonzero"/></clipPath><clipPath id="c5db8914e5"><path d="M 26.003906 178.933594 C 26.003906 179.574219 26.257812 180.1875 26.710938 180.640625 C 27.164062 181.09375 27.777344 181.351562 28.417969 181.351562 L 57.386719 181.351562 C 58.027344 181.351562 58.640625 181.09375 59.09375 180.640625 C 59.546875 180.1875 59.800781 179.574219 59.800781 178.933594 C 59.800781 178.292969 59.546875 177.679688 59.09375 177.226562 C 58.640625 176.773438 58.027344 176.519531 57.386719 176.519531 L 28.417969 176.519531 C 27.777344 176.519531 27.164062 176.773438 26.710938 177.226562 C 26.257812 177.679688 26.003906 178.292969 26.003906 178.933594 Z M 26.003906 178.933594 " clip-rule="nonzero"/></clipPath><clipPath id="de1238ea60"><path d="M 26.003906 187.507812 L 53.003906 187.507812 L 53.003906 192.007812 L 26.003906 192.007812 Z M 26.003906 187.507812 " clip-rule="nonzero"/></clipPath><clipPath id="285ed43073"><path d="M 26.003906 189.921875 C 26.003906 190.5625 26.257812 191.175781 26.710938 191.628906 C 27.164062 192.082031 27.777344 192.335938 28.417969 192.335938 L 50.851562 192.335938 C 51.492188 192.335938 52.105469 192.082031 52.558594 191.628906 C 53.011719 191.175781 53.265625 190.5625 53.265625 189.921875 C 53.265625 189.28125 53.011719 188.667969 52.558594 188.214844 C 52.105469 187.761719 51.492188 187.507812 50.851562 187.507812 L 28.417969 187.507812 C 27.777344 187.507812 27.164062 187.761719 26.710938 188.214844 C 26.257812 188.667969 26.003906 189.28125 26.003906 189.921875 Z M 26.003906 189.921875 " clip-rule="nonzero"/></clipPath><clipPath id="1773a495b7"><path d="M 45 196 L 83 196 L 83 225.933594 L 45 225.933594 Z M 45 196 " clip-rule="nonzero"/></clipPath><clipPath id="bca12cc07e"><path d="M 18.46875 162 L 22.96875 162 L 22.96875 226 L 18.46875 226 Z M 18.46875 162 " clip-rule="nonzero"/></clipPath><clipPath id="c6351d9007"><path d="M 19 162.230469 L 68 162.230469 L 68 165.230469 L 19 165.230469 Z M 19 162.230469 " clip-rule="nonzero"/></clipPath><clipPath id="9691edefa3"><path d="M 19 222.347656 L 51.199219 222.347656 L 51.199219 226.097656 L 19 226.097656 Z M 19 222.347656 " clip-rule="nonzero"/></clipPath><clipPath id="a575aee902"><path d="M 51.199219 224.179688 C 51.199219 223.667969 50.996094 223.183594 50.636719 222.820312 C 50.277344 222.460938 49.789062 222.261719 49.28125 222.261719 L 20.664062 222.261719 C 20.15625 222.261719 19.667969 222.460938 19.308594 222.820312 C 18.949219 223.183594 18.746094 223.667969 18.746094 224.179688 C 18.746094 224.6875 18.949219 225.175781 19.308594 225.535156 C 19.667969 225.894531 20.15625 226.097656 20.664062 226.097656 L 49.28125 226.097656 C 49.789062 226.097656 50.277344 225.894531 50.636719 225.535156 C 50.996094 225.175781 51.199219 224.6875 51.199219 224.179688 Z M 51.199219 224.179688 " clip-rule="nonzero"/></clipPath><clipPath id="80923854be"><path d="M 63.515625 162 L 68.015625 162 L 68.015625 194.015625 L 63.515625 194.015625 Z M 63.515625 162 " clip-rule="nonzero"/></clipPath><clipPath id="ca6c27d0fd"><path d="M 65.902344 161.765625 C 65.339844 161.765625 64.804688 161.988281 64.40625 162.382812 C 64.011719 162.78125 63.789062 163.316406 63.789062 163.878906 L 63.789062 192.15625 C 63.789062 192.714844 64.011719 193.253906 64.40625 193.648438 C 64.804688 194.046875 65.339844 194.269531 65.902344 194.269531 C 66.460938 194.269531 67 194.046875 67.394531 193.648438 C 67.792969 193.253906 68.015625 192.714844 68.015625 192.15625 L 68.015625 163.878906 C 68.015625 163.316406 67.792969 162.78125 67.394531 162.382812 C 67 161.988281 66.460938 161.765625 65.902344 161.765625 Z M 65.902344 161.765625 " clip-rule="nonzero"/></clipPath></defs><g fill="#ffffff" fill-opacity="1"><g transform="translate(80.123085, 223.907415)"><g><path d="M 42.25 -16.390625 C 42.25 -12.890625 41.398438 -9.847656 39.703125 -7.265625 C 38.015625 -4.679688 35.546875 -2.6875 32.296875 -1.28125 C 29.054688 0.113281 25.125 0.8125 20.5 0.8125 C 18.457031 0.8125 16.457031 0.675781 14.5 0.40625 C 12.550781 0.132812 10.679688 -0.257812 8.890625 -0.78125 C 7.109375 -1.3125 5.410156 -1.96875 3.796875 -2.75 L 3.796875 -14.375 C 6.585938 -13.132812 9.488281 -12.015625 12.5 -11.015625 C 15.519531 -10.023438 18.507812 -9.53125 21.46875 -9.53125 C 23.507812 -9.53125 25.15625 -9.796875 26.40625 -10.328125 C 27.664062 -10.867188 28.578125 -11.609375 29.140625 -12.546875 C 29.703125 -13.492188 29.984375 -14.570312 29.984375 -15.78125 C 29.984375 -17.257812 29.484375 -18.519531 28.484375 -19.5625 C 27.492188 -20.613281 26.128906 -21.597656 24.390625 -22.515625 C 22.660156 -23.429688 20.707031 -24.414062 18.53125 -25.46875 C 17.15625 -26.113281 15.660156 -26.898438 14.046875 -27.828125 C 12.429688 -28.753906 10.894531 -29.890625 9.4375 -31.234375 C 7.988281 -32.578125 6.800781 -34.210938 5.875 -36.140625 C 4.945312 -38.066406 4.484375 -40.375 4.484375 -43.0625 C 4.484375 -46.582031 5.289062 -49.59375 6.90625 -52.09375 C 8.519531 -54.601562 10.828125 -56.523438 13.828125 -57.859375 C 16.828125 -59.191406 20.367188 -59.859375 24.453125 -59.859375 C 27.523438 -59.859375 30.453125 -59.5 33.234375 -58.78125 C 36.015625 -58.070312 38.925781 -57.046875 41.96875 -55.703125 L 37.9375 -45.96875 C 35.21875 -47.070312 32.78125 -47.925781 30.625 -48.53125 C 28.476562 -49.132812 26.285156 -49.4375 24.046875 -49.4375 C 22.492188 -49.4375 21.164062 -49.1875 20.0625 -48.6875 C 18.957031 -48.195312 18.117188 -47.5 17.546875 -46.59375 C 16.984375 -45.695312 16.703125 -44.65625 16.703125 -43.46875 C 16.703125 -42.070312 17.113281 -40.894531 17.9375 -39.9375 C 18.757812 -38.976562 20 -38.054688 21.65625 -37.171875 C 23.3125 -36.285156 25.375 -35.25 27.84375 -34.0625 C 30.863281 -32.632812 33.441406 -31.144531 35.578125 -29.59375 C 37.710938 -28.050781 39.359375 -26.238281 40.515625 -24.15625 C 41.671875 -22.070312 42.25 -19.484375 42.25 -16.390625 Z M 42.25 -16.390625 "/></g></g></g><g fill="#ffffff" fill-opacity="1"><g transform="translate(122.179073, 223.907415)"><g><path d="M 47.46875 -22.640625 C 47.46875 -18.867188 46.960938 -15.53125 45.953125 -12.625 C 44.941406 -9.726562 43.472656 -7.273438 41.546875 -5.265625 C 39.628906 -3.265625 37.316406 -1.75 34.609375 -0.71875 C 31.898438 0.300781 28.851562 0.8125 25.46875 0.8125 C 22.289062 0.8125 19.375 0.300781 16.71875 -0.71875 C 14.070312 -1.75 11.773438 -3.265625 9.828125 -5.265625 C 7.878906 -7.273438 6.375 -9.726562 5.3125 -12.625 C 4.25 -15.53125 3.71875 -18.867188 3.71875 -22.640625 C 3.71875 -27.648438 4.601562 -31.890625 6.375 -35.359375 C 8.15625 -38.828125 10.6875 -41.460938 13.96875 -43.265625 C 17.25 -45.066406 21.160156 -45.96875 25.703125 -45.96875 C 29.929688 -45.96875 33.679688 -45.066406 36.953125 -43.265625 C 40.222656 -41.460938 42.789062 -38.828125 44.65625 -35.359375 C 46.53125 -31.890625 47.46875 -27.648438 47.46875 -22.640625 Z M 16.265625 -22.640625 C 16.265625 -19.679688 16.585938 -17.191406 17.234375 -15.171875 C 17.878906 -13.148438 18.882812 -11.628906 20.25 -10.609375 C 21.625 -9.585938 23.414062 -9.078125 25.625 -9.078125 C 27.800781 -9.078125 29.566406 -9.585938 30.921875 -10.609375 C 32.285156 -11.628906 33.285156 -13.148438 33.921875 -15.171875 C 34.554688 -17.191406 34.875 -19.679688 34.875 -22.640625 C 34.875 -25.628906 34.554688 -28.109375 33.921875 -30.078125 C 33.285156 -32.054688 32.28125 -33.546875 30.90625 -34.546875 C 29.539062 -35.546875 27.753906 -36.046875 25.546875 -36.046875 C 22.296875 -36.046875 19.9375 -34.925781 18.46875 -32.6875 C 17 -30.457031 16.265625 -27.109375 16.265625 -22.640625 Z M 16.265625 -22.640625 "/></g></g></g><g fill="#ffffff" fill-opacity="1"><g transform="translate(169.885685, 223.907415)"><g><path d="M 20.75 0.8125 C 15.71875 0.8125 11.617188 -1.15625 8.453125 -5.09375 C 5.296875 -9.039062 3.71875 -14.835938 3.71875 -22.484375 C 3.71875 -30.203125 5.316406 -36.046875 8.515625 -40.015625 C 11.710938 -43.984375 15.894531 -45.96875 21.0625 -45.96875 C 23.21875 -45.96875 25.113281 -45.671875 26.75 -45.078125 C 28.394531 -44.484375 29.816406 -43.6875 31.015625 -42.6875 C 32.210938 -41.695312 33.226562 -40.582031 34.0625 -39.34375 L 34.46875 -39.34375 C 34.300781 -40.207031 34.101562 -41.476562 33.875 -43.15625 C 33.644531 -44.84375 33.53125 -46.570312 33.53125 -48.34375 L 33.53125 -62.796875 L 45.890625 -62.796875 L 45.890625 0 L 36.4375 0 L 34.0625 -5.859375 L 33.53125 -5.859375 C 32.757812 -4.617188 31.785156 -3.492188 30.609375 -2.484375 C 29.441406 -1.472656 28.050781 -0.671875 26.4375 -0.078125 C 24.820312 0.515625 22.925781 0.8125 20.75 0.8125 Z M 25.0625 -9 C 28.425781 -9 30.800781 -10 32.1875 -12 C 33.570312 -14.007812 34.304688 -17.03125 34.390625 -21.0625 L 34.390625 -22.40625 C 34.390625 -26.789062 33.710938 -30.144531 32.359375 -32.46875 C 31.015625 -34.789062 28.515625 -35.953125 24.859375 -35.953125 C 22.140625 -35.953125 20.015625 -34.78125 18.484375 -32.4375 C 16.953125 -30.101562 16.1875 -26.726562 16.1875 -22.3125 C 16.1875 -17.90625 16.957031 -14.582031 18.5 -12.34375 C 20.050781 -10.113281 22.238281 -9 25.0625 -9 Z M 25.0625 -9 "/></g></g></g><g fill="#ffffff" fill-opacity="1"><g transform="translate(218.722419, 223.907415)"><g><path d="M 47.46875 -22.640625 C 47.46875 -18.867188 46.960938 -15.53125 45.953125 -12.625 C 44.941406 -9.726562 43.472656 -7.273438 41.546875 -5.265625 C 39.628906 -3.265625 37.316406 -1.75 34.609375 -0.71875 C 31.898438 0.300781 28.851562 0.8125 25.46875 0.8125 C 22.289062 0.8125 19.375 0.300781 16.71875 -0.71875 C 14.070312 -1.75 11.773438 -3.265625 9.828125 -5.265625 C 7.878906 -7.273438 6.375 -9.726562 5.3125 -12.625 C 4.25 -15.53125 3.71875 -18.867188 3.71875 -22.640625 C 3.71875 -27.648438 4.601562 -31.890625 6.375 -35.359375 C 8.15625 -38.828125 10.6875 -41.460938 13.96875 -43.265625 C 17.25 -45.066406 21.160156 -45.96875 25.703125 -45.96875 C 29.929688 -45.96875 33.679688 -45.066406 36.953125 -43.265625 C 40.222656 -41.460938 42.789062 -38.828125 44.65625 -35.359375 C 46.53125 -31.890625 47.46875 -27.648438 47.46875 -22.640625 Z M 16.265625 -22.640625 C 16.265625 -19.679688 16.585938 -17.191406 17.234375 -15.171875 C 17.878906 -13.148438 18.882812 -11.628906 20.25 -10.609375 C 21.625 -9.585938 23.414062 -9.078125 25.625 -9.078125 C 27.800781 -9.078125 29.566406 -9.585938 30.921875 -10.609375 C 32.285156 -11.628906 33.285156 -13.148438 33.921875 -15.171875 C 34.554688 -17.191406 34.875 -19.679688 34.875 -22.640625 C 34.875 -25.628906 34.554688 -28.109375 33.921875 -30.078125 C 33.285156 -32.054688 32.28125 -33.546875 30.90625 -34.546875 C 29.539062 -35.546875 27.753906 -36.046875 25.546875 -36.046875 C 22.296875 -36.046875 19.9375 -34.925781 18.46875 -32.6875 C 17 -30.457031 16.265625 -27.109375 16.265625 -22.640625 Z M 16.265625 -22.640625 "/></g></g></g><g fill="#ffffff" fill-opacity="1"><g transform="translate(266.429033, 223.907415)"><g><path d="M 24.78125 0.8125 C 20.3125 0.8125 16.503906 0 13.359375 -1.625 C 10.210938 -3.257812 7.816406 -5.785156 6.171875 -9.203125 C 4.535156 -12.617188 3.71875 -16.988281 3.71875 -22.3125 C 3.71875 -27.832031 4.648438 -32.332031 6.515625 -35.8125 C 8.390625 -39.300781 10.988281 -41.863281 14.3125 -43.5 C 17.632812 -45.144531 21.488281 -45.96875 25.875 -45.96875 C 28.988281 -45.96875 31.679688 -45.664062 33.953125 -45.0625 C 36.234375 -44.457031 38.222656 -43.738281 39.921875 -42.90625 L 36.28125 -33.375 C 34.34375 -34.15625 32.539062 -34.796875 30.875 -35.296875 C 29.207031 -35.796875 27.539062 -36.046875 25.875 -36.046875 C 23.71875 -36.046875 21.925781 -35.539062 20.5 -34.53125 C 19.070312 -33.519531 18.007812 -32.003906 17.3125 -29.984375 C 16.613281 -27.960938 16.265625 -25.4375 16.265625 -22.40625 C 16.265625 -19.414062 16.640625 -16.9375 17.390625 -14.96875 C 18.148438 -13.007812 19.238281 -11.550781 20.65625 -10.59375 C 22.082031 -9.632812 23.820312 -9.15625 25.875 -9.15625 C 28.425781 -9.15625 30.695312 -9.5 32.6875 -10.1875 C 34.675781 -10.875 36.613281 -11.835938 38.5 -13.078125 L 38.5 -2.546875 C 36.613281 -1.359375 34.640625 -0.503906 32.578125 0.015625 C 30.523438 0.546875 27.925781 0.8125 24.78125 0.8125 Z M 24.78125 0.8125 "/></g></g></g><g fill="#ffffff" fill-opacity="1"><g transform="translate(305.457912, 223.907415)"><g><path d="M 47.859375 -45.125 L 47.859375 0 L 38.421875 0 L 36.765625 -5.765625 L 36.125 -5.765625 C 35.15625 -4.234375 33.941406 -2.984375 32.484375 -2.015625 C 31.035156 -1.046875 29.4375 -0.332031 27.6875 0.125 C 25.9375 0.582031 24.117188 0.8125 22.234375 0.8125 C 19.003906 0.8125 16.191406 0.238281 13.796875 -0.90625 C 11.410156 -2.050781 9.550781 -3.832031 8.21875 -6.25 C 6.882812 -8.675781 6.21875 -11.828125 6.21875 -15.703125 L 6.21875 -45.125 L 18.53125 -45.125 L 18.53125 -18.765625 C 18.53125 -15.535156 19.109375 -13.097656 20.265625 -11.453125 C 21.421875 -9.816406 23.265625 -9 25.796875 -9 C 28.296875 -9 30.257812 -9.570312 31.6875 -10.71875 C 33.113281 -11.863281 34.113281 -13.546875 34.6875 -15.765625 C 35.269531 -17.984375 35.5625 -20.691406 35.5625 -23.890625 L 35.5625 -45.125 Z M 47.859375 -45.125 "/></g></g></g><g clip-path="url(#b71c22423a)"><g clip-path="url(#c5db8914e5)"><path fill="#ffffff" d="M 26.019531 176.519531 L 26.019531 181.347656 L 74.300781 181.347656 L 74.300781 176.519531 Z M 26.019531 176.519531 " fill-opacity="1" fill-rule="nonzero"/></g></g><g clip-path="url(#de1238ea60)"><g clip-path="url(#285ed43073)"><path fill="#ffffff" d="M 26.019531 187.507812 L 26.019531 192.335938 L 74.300781 192.335938 L 74.300781 187.507812 Z M 26.019531 187.507812 " fill-opacity="1" fill-rule="nonzero"/></g></g><g clip-path="url(#1773a495b7)"><path fill="#ffffff" d="M 81.113281 197.003906 L 80.878906 196.828125 C 80.113281 196.210938 79.175781 195.945312 78.292969 196.035156 C 77.351562 196.125 76.5 196.535156 75.882812 197.269531 L 67.949219 206.613281 L 63.25 212.285156 L 59.8125 216.425781 L 57.460938 213.929688 L 56.136719 212.546875 L 51.496094 207.699219 C 50.820312 206.996094 49.9375 206.640625 48.996094 206.582031 C 48.117188 206.523438 47.175781 206.90625 46.5 207.554688 L 46.265625 207.789062 C 44.824219 209.109375 44.796875 211.402344 46.117188 212.8125 L 50.703125 217.632812 L 52.023438 219.070312 L 57.3125 224.625 C 57.929688 225.242188 58.753906 225.652344 59.546875 225.683594 C 59.605469 225.683594 59.605469 225.683594 59.632812 225.683594 C 59.691406 225.683594 59.722656 225.683594 59.8125 225.683594 C 59.8125 225.683594 59.8125 225.683594 59.871094 225.683594 C 60.015625 225.683594 60.132812 225.683594 60.308594 225.683594 C 61.25 225.59375 62.101562 225.183594 62.71875 224.449219 L 70.59375 215.105469 L 73.679688 211.371094 L 81.554688 202.027344 C 82.789062 200.53125 82.613281 198.296875 81.113281 197.003906 Z M 81.113281 197.003906 " fill-opacity="1" fill-rule="nonzero"/></g><g clip-path="url(#bca12cc07e)"><path fill="#ffffff" d="M 22.96875 223.339844 L 22.96875 164.277344 C 22.96875 163.113281 22.027344 162.167969 20.859375 162.167969 C 19.695312 162.167969 18.75 163.113281 18.75 164.277344 L 18.75 223.339844 C 18.75 224.503906 19.695312 225.449219 20.859375 225.449219 C 22.027344 225.449219 22.96875 224.503906 22.96875 223.339844 Z M 22.96875 223.339844 " fill-opacity="1" fill-rule="nonzero"/></g><g clip-path="url(#c6351d9007)"><path fill="#ffffff" d="M 20.824219 165.230469 L 65.941406 165.230469 C 66.832031 165.230469 67.550781 164.507812 67.550781 163.617188 C 67.550781 162.730469 66.832031 162.007812 65.941406 162.007812 L 20.824219 162.007812 C 19.933594 162.007812 19.214844 162.730469 19.214844 163.617188 C 19.214844 164.507812 19.933594 165.230469 20.824219 165.230469 Z M 20.824219 165.230469 " fill-opacity="1" fill-rule="nonzero"/></g><g clip-path="url(#9691edefa3)"><g clip-path="url(#a575aee902)"><path fill="#ffffff" d="M 21.226562 226.097656 L 74.875 226.097656 C 75.933594 226.097656 76.792969 225.238281 76.792969 224.179688 C 76.792969 223.121094 75.933594 222.265625 74.875 222.265625 L 21.226562 222.265625 C 20.167969 222.265625 19.3125 223.121094 19.3125 224.179688 C 19.3125 225.238281 20.167969 226.097656 21.226562 226.097656 Z M 21.226562 226.097656 " fill-opacity="1" fill-rule="nonzero"/></g></g><g clip-path="url(#80923854be)"><g clip-path="url(#ca6c27d0fd)"><path fill="#ffffff" d="M 68.015625 223.582031 L 68.015625 164.519531 C 68.015625 163.355469 67.070312 162.410156 65.90625 162.410156 C 64.738281 162.410156 63.796875 163.355469 63.796875 164.519531 L 63.796875 223.582031 C 63.796875 224.746094 64.738281 225.691406 65.90625 225.691406 C 67.070312 225.691406 68.015625 224.746094 68.015625 223.582031 Z M 68.015625 223.582031 " fill-opacity="1" fill-rule="nonzero"/></g></g></svg>