<svg xmlns="http://www.w3.org/2000/svg" xmlns:xlink="http://www.w3.org/1999/xlink" width="2000" zoomAndPan="magnify" viewBox="0 0 1500 449.999984" height="600" preserveAspectRatio="xMidYMid meet" version="1.0"><defs><g/><clipPath id="3e9972f24c"><path d="M 157 181 L 287.5 181 L 287.5 312 L 157 312 Z M 157 181 " clip-rule="nonzero"/></clipPath><clipPath id="5f11b68d71"><path d="M 22 102.109375 L 226 102.109375 L 226 367 L 22 367 Z M 22 102.109375 " clip-rule="nonzero"/></clipPath><clipPath id="59e7dec3ac"><path d="M 162.34375 177.699219 L 300.332031 177.699219 L 300.332031 246.691406 L 162.34375 246.691406 Z M 162.34375 177.699219 " clip-rule="nonzero"/></clipPath><clipPath id="1f4d2c268a"><path d="M 60.847656 234.65625 L 300.332031 234.65625 L 300.332031 310.003906 L 60.847656 310.003906 Z M 60.847656 234.65625 " clip-rule="nonzero"/></clipPath><clipPath id="b6758f0274"><path d="M 251.757812 177.695312 L 291.625 177.695312 L 291.625 315.679688 L 251.757812 315.679688 Z M 251.757812 177.695312 " clip-rule="nonzero"/></clipPath><clipPath id="80df2f6597"><path d="M 55 148.570312 L 188.71875 148.570312 L 188.71875 274.363281 L 55 274.363281 Z M 55 148.570312 " clip-rule="nonzero"/></clipPath><clipPath id="8d5701aff2"><path d="M 203.167969 148.578125 L 221.378906 148.578125 L 221.378906 249.253906 L 203.167969 249.253906 Z M 203.167969 148.578125 " clip-rule="nonzero"/></clipPath><clipPath id="790eb80197"><path d="M 221.378906 157.683594 L 221.378906 240.113281 C 221.378906 242.53125 220.421875 244.847656 218.714844 246.554688 C 217.003906 248.261719 214.6875 249.222656 212.273438 249.222656 C 209.859375 249.222656 207.542969 248.261719 205.832031 246.554688 C 204.125 244.847656 203.167969 242.53125 203.167969 240.113281 L 203.167969 157.683594 C 203.167969 155.269531 204.125 152.953125 205.832031 151.242188 C 207.542969 149.535156 209.859375 148.578125 212.273438 148.578125 C 214.6875 148.578125 217.003906 149.535156 218.714844 151.242188 C 220.421875 152.953125 221.378906 155.269531 221.378906 157.683594 Z M 221.378906 157.683594 " clip-rule="nonzero"/></clipPath><clipPath id="76a1185f53"><path d="M 67.316406 154.40625 L 167.621094 154.40625 L 167.621094 182.136719 L 67.316406 182.136719 Z M 67.316406 154.40625 " clip-rule="nonzero"/></clipPath><clipPath id="de0bec4308"><path d="M 153.757812 182.136719 L 81.289062 182.136719 C 73.628906 182.136719 67.421875 175.929688 67.421875 168.273438 C 67.421875 160.617188 73.628906 154.40625 81.289062 154.40625 L 153.757812 154.40625 C 161.414062 154.40625 167.621094 160.617188 167.621094 168.273438 C 167.621094 175.929688 161.414062 182.136719 153.757812 182.136719 Z M 153.757812 182.136719 " clip-rule="nonzero"/></clipPath><clipPath id="c361f26e45"><path d="M 114.121094 310.003906 L 231.335938 310.003906 L 231.335938 380.277344 L 114.121094 380.277344 Z M 114.121094 310.003906 " clip-rule="nonzero"/></clipPath><clipPath id="4cbc30137e"><path d="M 133.375 272.328125 L 259.734375 272.328125 L 259.734375 360.96875 L 133.375 360.96875 Z M 133.375 272.328125 " clip-rule="nonzero"/></clipPath><clipPath id="d7ccbc0627"><path d="M 76.523438 342.875 L 133.441406 342.875 L 133.441406 361.089844 L 76.523438 361.089844 Z M 76.523438 342.875 " clip-rule="nonzero"/></clipPath><clipPath id="197ec5d73b"><path d="M 85.628906 342.875 L 124.269531 342.875 C 126.683594 342.875 129 343.835938 130.707031 345.542969 C 132.417969 347.25 133.375 349.566406 133.375 351.984375 C 133.375 354.398438 132.417969 356.714844 130.707031 358.421875 C 129 360.132812 126.683594 361.089844 124.269531 361.089844 L 85.628906 361.089844 C 83.214844 361.089844 80.898438 360.132812 79.1875 358.421875 C 77.480469 356.714844 76.523438 354.398438 76.523438 351.984375 C 76.523438 349.566406 77.480469 347.25 79.1875 345.542969 C 80.898438 343.835938 83.214844 342.875 85.628906 342.875 Z M 85.628906 342.875 " clip-rule="nonzero"/></clipPath><clipPath id="8cf4b106a2"><path d="M 67.363281 224.5625 L 154.125 224.5625 L 154.125 252.289062 L 67.363281 252.289062 Z M 67.363281 224.5625 " clip-rule="nonzero"/></clipPath><clipPath id="09588ef661"><path d="M 140.261719 252.289062 L 81.292969 252.289062 C 73.632812 252.289062 67.425781 246.082031 67.425781 238.425781 C 67.425781 230.769531 73.632812 224.5625 81.292969 224.5625 L 140.261719 224.5625 C 147.917969 224.5625 154.125 230.769531 154.125 238.425781 C 154.125 246.082031 147.917969 252.289062 140.261719 252.289062 Z M 140.261719 252.289062 " clip-rule="nonzero"/></clipPath><clipPath id="03f48979dd"><path d="M 184 270 L 260 270 L 260 342 L 184 342 Z M 184 270 " clip-rule="nonzero"/></clipPath><clipPath id="8b2ffef6c5"><path d="M 263.6875 280.371094 L 192.882812 345.386719 L 180.5625 331.96875 L 251.367188 266.957031 Z M 263.6875 280.371094 " clip-rule="nonzero"/></clipPath><clipPath id="2cf6266fca"><path d="M 256.976562 286.53125 L 199.601562 339.21875 C 197.820312 340.851562 195.464844 341.710938 193.054688 341.609375 C 190.640625 341.503906 188.367188 340.449219 186.734375 338.667969 C 185.097656 336.890625 184.238281 334.535156 184.34375 332.121094 C 184.445312 329.707031 185.503906 327.433594 187.28125 325.800781 L 244.660156 273.117188 C 246.4375 271.480469 248.792969 270.621094 251.207031 270.726562 C 253.621094 270.828125 255.894531 271.886719 257.527344 273.664062 C 259.160156 275.445312 260.019531 277.800781 259.917969 280.210938 C 259.8125 282.625 258.757812 284.898438 256.976562 286.53125 Z M 256.976562 286.53125 " clip-rule="nonzero"/></clipPath></defs><rect x="-150" width="1800" fill="#ffffff" y="-44.999998" height="539.99998" fill-opacity="1"/><rect x="-150" width="1800" fill="#2b3035" y="-44.999998" height="539.99998" fill-opacity="1"/><path fill="#ffffff" d="M 197.367188 250.988281 L 210.820312 265.082031 C 212.570312 266.90625 214.988281 267.941406 217.515625 267.941406 C 220.042969 267.941406 222.460938 266.90625 224.199219 265.082031 L 247.75 240.421875 C 251.261719 236.722656 251.125 230.867188 247.441406 227.339844 C 243.742188 223.828125 237.882812 223.960938 234.359375 227.648438 L 217.515625 245.304688 C 217.515625 245.304688 210.757812 238.214844 210.757812 238.214844 C 207.234375 234.53125 201.375 234.394531 197.675781 237.921875 C 193.992188 241.433594 193.855469 247.304688 197.367188 250.988281 Z M 197.367188 250.988281 " fill-opacity="1" fill-rule="evenodd"/><g clip-path="url(#3e9972f24c)"><path fill="#ffffff" d="M 222.558594 181.636719 C 186.828125 181.636719 157.828125 210.632812 157.828125 246.367188 C 157.828125 282.097656 186.828125 311.097656 222.558594 311.097656 C 258.289062 311.097656 287.289062 282.097656 287.289062 246.367188 C 287.289062 210.632812 258.289062 181.636719 222.558594 181.636719 Z M 222.558594 200.128906 C 248.082031 200.128906 268.796875 220.84375 268.796875 246.367188 C 268.796875 271.886719 248.082031 292.601562 222.558594 292.601562 C 197.035156 292.601562 176.320312 271.886719 176.320312 246.367188 C 176.320312 220.84375 197.035156 200.128906 222.558594 200.128906 Z M 222.558594 200.128906 " fill-opacity="1" fill-rule="evenodd"/></g><g clip-path="url(#5f11b68d71)"><path fill="#ffffff" d="M 225.640625 160.058594 C 225.640625 160.058594 225.640625 147.726562 225.640625 135.398438 C 225.640625 116.667969 210.464844 101.492188 191.734375 101.492188 L 61.125 101.492188 C 50.792969 101.492188 40.878906 105.632812 33.570312 113.007812 C 26.292969 120.355469 22.199219 130.304688 22.199219 140.699219 L 22.199219 334.867188 C 22.199219 352.402344 36.332031 366.582031 53.714844 366.582031 C 96.660156 366.582031 138.46875 366.582031 186.714844 366.582031 C 197.046875 366.582031 206.960938 362.4375 214.273438 355.066406 C 221.546875 347.714844 225.640625 337.765625 225.640625 327.371094 C 225.640625 322.269531 221.5 318.125 216.394531 318.125 C 211.289062 318.125 207.148438 322.269531 207.148438 327.371094 C 207.148438 332.871094 204.988281 338.160156 201.128906 342.042969 C 197.308594 345.917969 192.117188 348.085938 186.714844 348.085938 C 186.714844 348.085938 53.714844 348.085938 53.714844 348.085938 C 46.503906 348.085938 40.695312 342.144531 40.695312 334.867188 C 40.695312 334.867188 40.695312 140.699219 40.695312 140.699219 C 40.695312 135.1875 42.851562 129.910156 46.710938 126.027344 C 50.535156 122.15625 55.726562 119.984375 61.125 119.984375 L 191.734375 119.984375 C 200.242188 119.984375 207.148438 126.890625 207.148438 135.398438 C 207.148438 147.726562 207.148438 160.058594 207.148438 160.058594 C 207.148438 165.164062 211.289062 169.304688 216.394531 169.304688 C 221.5 169.304688 225.640625 165.164062 225.640625 160.058594 Z M 225.640625 160.058594 " fill-opacity="1" fill-rule="evenodd"/></g><path fill="#ffffff" d="M 93.097656 175.46875 L 154.746094 175.46875 C 159.851562 175.46875 163.992188 171.328125 163.992188 166.222656 C 163.992188 161.117188 159.851562 156.976562 154.746094 156.976562 L 93.097656 156.976562 C 87.992188 156.976562 83.847656 161.117188 83.847656 166.222656 C 83.847656 171.328125 87.992188 175.46875 93.097656 175.46875 Z M 93.097656 175.46875 " fill-opacity="1" fill-rule="evenodd"/><path fill="#ffffff" d="M 74.601562 224.789062 L 136.25 224.789062 C 141.355469 224.789062 145.496094 220.644531 145.496094 215.542969 C 145.496094 210.4375 141.355469 206.292969 136.25 206.292969 L 74.601562 206.292969 C 69.496094 206.292969 65.355469 210.4375 65.355469 215.542969 C 65.355469 220.644531 69.496094 224.789062 74.601562 224.789062 Z M 74.601562 224.789062 " fill-opacity="1" fill-rule="evenodd"/><path fill="#ffffff" d="M 74.601562 267.941406 L 136.25 267.941406 C 141.355469 267.941406 145.496094 263.800781 145.496094 258.695312 C 145.496094 253.589844 141.355469 249.449219 136.25 249.449219 L 74.601562 249.449219 C 69.496094 249.449219 65.355469 253.589844 65.355469 258.695312 C 65.355469 263.800781 69.496094 267.941406 74.601562 267.941406 Z M 74.601562 267.941406 " fill-opacity="1" fill-rule="evenodd"/><path fill="#ffffff" d="M 74.601562 311.097656 L 154.746094 311.097656 C 159.851562 311.097656 163.992188 306.953125 163.992188 301.851562 C 163.992188 296.746094 159.851562 292.601562 154.746094 292.601562 L 74.601562 292.601562 C 69.496094 292.601562 65.355469 296.746094 65.355469 301.851562 C 65.355469 306.953125 69.496094 311.097656 74.601562 311.097656 Z M 74.601562 311.097656 " fill-opacity="1" fill-rule="evenodd"/><g clip-path="url(#59e7dec3ac)"><path fill="#2b3035" d="M 162.34375 177.699219 L 300.332031 177.699219 L 300.332031 246.691406 L 162.34375 246.691406 Z M 162.34375 177.699219 " fill-opacity="1" fill-rule="nonzero"/></g><g clip-path="url(#1f4d2c268a)"><path fill="#2b3035" d="M 60.847656 234.65625 L 300.433594 234.65625 L 300.433594 310.003906 L 60.847656 310.003906 Z M 60.847656 234.65625 " fill-opacity="1" fill-rule="nonzero"/></g><g clip-path="url(#b6758f0274)"><path fill="#2b3035" d="M 291.625 177.695312 L 291.625 315.667969 L 251.757812 315.667969 L 251.757812 177.695312 Z M 291.625 177.695312 " fill-opacity="1" fill-rule="nonzero"/></g><g clip-path="url(#80df2f6597)"><path fill="#2b3035" d="M 188.71875 148.570312 L 188.71875 274.363281 L 55.0625 274.363281 L 55.0625 148.570312 Z M 188.71875 148.570312 " fill-opacity="1" fill-rule="nonzero"/></g><g clip-path="url(#8d5701aff2)"><g clip-path="url(#790eb80197)"><path fill="#ffffff" d="M 221.378906 148.578125 L 221.378906 249.253906 L 203.167969 249.253906 L 203.167969 148.578125 Z M 221.378906 148.578125 " fill-opacity="1" fill-rule="nonzero"/></g></g><g clip-path="url(#76a1185f53)"><g clip-path="url(#de0bec4308)"><path fill="#ffffff" d="M 167.621094 182.136719 L 67.425781 182.136719 L 67.425781 154.40625 L 167.621094 154.40625 Z M 167.621094 182.136719 " fill-opacity="1" fill-rule="nonzero"/></g></g><g clip-path="url(#c361f26e45)"><path fill="#2b3035" d="M 114.121094 310.003906 L 231.332031 310.003906 L 231.332031 380.277344 L 114.121094 380.277344 Z M 114.121094 310.003906 " fill-opacity="1" fill-rule="nonzero"/></g><g clip-path="url(#4cbc30137e)"><path fill="#ffffff" d="M 257.621094 281.003906 C 259.496094 279.128906 259.496094 276.089844 257.621094 274.214844 C 255.746094 272.339844 252.707031 272.339844 250.832031 274.214844 L 177.542969 332.917969 L 142.042969 312 C 140.167969 310.125 137.125 310.125 135.25 312 C 133.375 313.875 133.375 316.914062 135.25 318.789062 L 177.542969 361.074219 Z M 257.621094 281.003906 " fill-opacity="1" fill-rule="nonzero"/></g><g clip-path="url(#d7ccbc0627)"><g clip-path="url(#197ec5d73b)"><path fill="#ffffff" d="M 76.523438 342.875 L 133.371094 342.875 L 133.371094 361.089844 L 76.523438 361.089844 Z M 76.523438 342.875 " fill-opacity="1" fill-rule="nonzero"/></g></g><g clip-path="url(#8cf4b106a2)"><g clip-path="url(#09588ef661)"><path fill="#ffffff" d="M 154.125 252.289062 L 67.46875 252.289062 L 67.46875 224.5625 L 154.125 224.5625 Z M 154.125 252.289062 " fill-opacity="1" fill-rule="nonzero"/></g></g><g clip-path="url(#03f48979dd)"><g clip-path="url(#8b2ffef6c5)"><g clip-path="url(#2cf6266fca)"><path fill="#ffffff" d="M 263.6875 280.371094 L 192.882812 345.386719 L 180.5625 331.96875 L 251.367188 266.957031 Z M 263.6875 280.371094 " fill-opacity="1" fill-rule="nonzero"/></g></g></g><g fill="#ffffff" fill-opacity="1"><g transform="translate(279.904489, 362.839805)"><g><path d="M 182.234375 -70.65625 C 182.234375 -47.6875 173.960938 -29.585938 157.421875 -16.359375 C 140.890625 -3.128906 117.890625 3.484375 88.421875 3.484375 C 61.265625 3.484375 37.242188 -1.617188 16.359375 -11.828125 L 16.359375 -61.96875 C 33.535156 -54.300781 48.066406 -48.898438 59.953125 -45.765625 C 71.847656 -42.640625 82.726562 -41.078125 92.59375 -41.078125 C 104.425781 -41.078125 113.503906 -43.335938 119.828125 -47.859375 C 126.148438 -52.390625 129.3125 -59.117188 129.3125 -68.046875 C 129.3125 -73.035156 127.921875 -77.472656 125.140625 -81.359375 C 122.359375 -85.253906 118.269531 -89 112.875 -92.59375 C 107.476562 -96.1875 96.484375 -101.929688 79.890625 -109.828125 C 64.335938 -117.140625 52.675781 -124.160156 44.90625 -130.890625 C 37.132812 -137.617188 30.925781 -145.445312 26.28125 -154.375 C 21.632812 -163.3125 19.3125 -173.753906 19.3125 -185.703125 C 19.3125 -208.210938 26.941406 -225.90625 42.203125 -238.78125 C 57.460938 -251.664062 78.550781 -258.109375 105.46875 -258.109375 C 118.695312 -258.109375 131.316406 -256.539062 143.328125 -253.40625 C 155.335938 -250.28125 167.898438 -245.875 181.015625 -240.1875 L 163.609375 -198.25 C 150.035156 -203.8125 138.804688 -207.691406 129.921875 -209.890625 C 121.046875 -212.097656 112.316406 -213.203125 103.734375 -213.203125 C 93.523438 -213.203125 85.691406 -210.820312 80.234375 -206.0625 C 74.785156 -201.3125 72.0625 -195.109375 72.0625 -187.453125 C 72.0625 -182.691406 73.160156 -178.539062 75.359375 -175 C 77.566406 -171.46875 81.078125 -168.046875 85.890625 -164.734375 C 90.703125 -161.429688 102.101562 -155.484375 120.09375 -146.890625 C 143.882812 -135.523438 160.1875 -124.125 169 -112.6875 C 177.820312 -101.257812 182.234375 -87.25 182.234375 -70.65625 Z M 182.234375 -70.65625 "/></g></g></g><g fill="#ffffff" fill-opacity="1"><g transform="translate(461.252131, 362.839805)"><g><path d="M 70.140625 -97.640625 C 70.140625 -78.378906 73.300781 -63.816406 79.625 -53.953125 C 85.945312 -44.085938 96.242188 -39.15625 110.515625 -39.15625 C 124.671875 -39.15625 134.851562 -44.054688 141.0625 -53.859375 C 147.269531 -63.671875 150.375 -78.265625 150.375 -97.640625 C 150.375 -116.898438 147.238281 -131.34375 140.96875 -140.96875 C 134.707031 -150.601562 124.441406 -155.421875 110.171875 -155.421875 C 96.015625 -155.421875 85.800781 -150.632812 79.53125 -141.0625 C 73.269531 -131.488281 70.140625 -117.015625 70.140625 -97.640625 Z M 204.6875 -97.640625 C 204.6875 -65.960938 196.332031 -41.1875 179.625 -23.3125 C 162.914062 -5.445312 139.648438 3.484375 109.828125 3.484375 C 91.140625 3.484375 74.660156 -0.601562 60.390625 -8.78125 C 46.117188 -16.96875 35.15625 -28.71875 27.5 -44.03125 C 19.84375 -59.351562 16.015625 -77.222656 16.015625 -97.640625 C 16.015625 -129.429688 24.3125 -154.144531 40.90625 -171.78125 C 57.5 -189.425781 80.820312 -198.25 110.875 -198.25 C 129.550781 -198.25 146.023438 -194.1875 160.296875 -186.0625 C 174.566406 -177.9375 185.53125 -166.273438 193.1875 -151.078125 C 200.851562 -135.878906 204.6875 -118.066406 204.6875 -97.640625 Z M 204.6875 -97.640625 "/></g></g></g><g fill="#ffffff" fill-opacity="1"><g transform="translate(666.96558, 362.839805)"><g><path d="M 89.46875 3.484375 C 66.601562 3.484375 48.644531 -5.390625 35.59375 -23.140625 C 22.539062 -40.898438 16.015625 -65.503906 16.015625 -96.953125 C 16.015625 -128.859375 22.65625 -153.71875 35.9375 -171.53125 C 49.226562 -189.34375 67.535156 -198.25 90.859375 -198.25 C 115.335938 -198.25 134.015625 -188.734375 146.890625 -169.703125 L 148.640625 -169.703125 C 145.972656 -184.203125 144.640625 -197.140625 144.640625 -208.515625 L 144.640625 -270.828125 L 197.890625 -270.828125 L 197.890625 0 L 157.171875 0 L 146.890625 -25.234375 L 144.640625 -25.234375 C 132.566406 -6.085938 114.175781 3.484375 89.46875 3.484375 Z M 108.078125 -38.8125 C 121.660156 -38.8125 131.613281 -42.753906 137.9375 -50.640625 C 144.257812 -58.535156 147.710938 -71.941406 148.296875 -90.859375 L 148.296875 -96.59375 C 148.296875 -117.476562 145.070312 -132.445312 138.625 -141.5 C 132.1875 -150.550781 121.71875 -155.078125 107.21875 -155.078125 C 95.382812 -155.078125 86.1875 -150.054688 79.625 -140.015625 C 73.070312 -129.984375 69.796875 -115.394531 69.796875 -96.25 C 69.796875 -77.101562 73.101562 -62.742188 79.71875 -53.171875 C 86.332031 -43.597656 95.785156 -38.8125 108.078125 -38.8125 Z M 108.078125 -38.8125 "/></g></g></g><g fill="#ffffff" fill-opacity="1"><g transform="translate(877.552208, 362.839805)"><g><path d="M 70.140625 -97.640625 C 70.140625 -78.378906 73.300781 -63.816406 79.625 -53.953125 C 85.945312 -44.085938 96.242188 -39.15625 110.515625 -39.15625 C 124.671875 -39.15625 134.851562 -44.054688 141.0625 -53.859375 C 147.269531 -63.671875 150.375 -78.265625 150.375 -97.640625 C 150.375 -116.898438 147.238281 -131.34375 140.96875 -140.96875 C 134.707031 -150.601562 124.441406 -155.421875 110.171875 -155.421875 C 96.015625 -155.421875 85.800781 -150.632812 79.53125 -141.0625 C 73.269531 -131.488281 70.140625 -117.015625 70.140625 -97.640625 Z M 204.6875 -97.640625 C 204.6875 -65.960938 196.332031 -41.1875 179.625 -23.3125 C 162.914062 -5.445312 139.648438 3.484375 109.828125 3.484375 C 91.140625 3.484375 74.660156 -0.601562 60.390625 -8.78125 C 46.117188 -16.96875 35.15625 -28.71875 27.5 -44.03125 C 19.84375 -59.351562 16.015625 -77.222656 16.015625 -97.640625 C 16.015625 -129.429688 24.3125 -154.144531 40.90625 -171.78125 C 57.5 -189.425781 80.820312 -198.25 110.875 -198.25 C 129.550781 -198.25 146.023438 -194.1875 160.296875 -186.0625 C 174.566406 -177.9375 185.53125 -166.273438 193.1875 -151.078125 C 200.851562 -135.878906 204.6875 -118.066406 204.6875 -97.640625 Z M 204.6875 -97.640625 "/></g></g></g><g fill="#ffffff" fill-opacity="1"><g transform="translate(1083.265643, 362.839805)"><g><path d="M 106.859375 3.484375 C 46.296875 3.484375 16.015625 -29.757812 16.015625 -96.25 C 16.015625 -129.320312 24.25 -154.585938 40.71875 -172.046875 C 57.195312 -189.515625 80.8125 -198.25 111.5625 -198.25 C 134.070312 -198.25 154.265625 -193.835938 172.140625 -185.015625 L 156.46875 -143.9375 C 148.113281 -147.300781 140.335938 -150.054688 133.140625 -152.203125 C 125.953125 -154.347656 118.757812 -155.421875 111.5625 -155.421875 C 83.945312 -155.421875 70.140625 -135.8125 70.140625 -96.59375 C 70.140625 -58.539062 83.945312 -39.515625 111.5625 -39.515625 C 121.769531 -39.515625 131.222656 -40.875 139.921875 -43.59375 C 148.628906 -46.320312 157.335938 -50.585938 166.046875 -56.390625 L 166.046875 -10.96875 C 157.453125 -5.507812 148.773438 -1.738281 140.015625 0.34375 C 131.253906 2.4375 120.203125 3.484375 106.859375 3.484375 Z M 106.859375 3.484375 "/></g></g></g><g fill="#ffffff" fill-opacity="1"><g transform="translate(1251.560159, 362.839805)"><g><path d="M 165.6875 0 L 158.5625 -24.890625 L 155.78125 -24.890625 C 150.09375 -15.835938 142.023438 -8.84375 131.578125 -3.90625 C 121.140625 1.019531 109.25 3.484375 95.90625 3.484375 C 73.039062 3.484375 55.804688 -2.632812 44.203125 -14.875 C 32.597656 -27.125 26.796875 -44.734375 26.796875 -67.703125 L 26.796875 -194.59375 L 79.890625 -194.59375 L 79.890625 -80.9375 C 79.890625 -66.894531 82.382812 -56.363281 87.375 -49.34375 C 92.363281 -42.320312 100.3125 -38.8125 111.21875 -38.8125 C 126.070312 -38.8125 136.804688 -43.769531 143.421875 -53.6875 C 150.035156 -63.613281 153.34375 -80.0625 153.34375 -103.03125 L 153.34375 -194.59375 L 206.421875 -194.59375 L 206.421875 0 Z M 165.6875 0 "/></g></g></g></svg>